<?xml version="1.0" encoding="utf-8"?>
<!-- Generator: Adobe Illustrator 16.0.0, SVG Export Plug-In . SVG Version: 6.00 Build 0)  -->
<!DOCTYPE svg PUBLIC "-//W3C//DTD SVG 1.1//EN" "http://www.w3.org/Graphics/SVG/1.1/DTD/svg11.dtd">
<svg version="1.1" id="Calque_1" xmlns="http://www.w3.org/2000/svg" xmlns:xlink="http://www.w3.org/1999/xlink" x="0px" y="0px"
	 width="510.102px" height="221.826px" viewBox="0 0 510.102 221.826" enable-background="new 0 0 510.102 221.826"
	 xml:space="preserve">
<path fill="#FFFFFF" d="M486.727,182.121h-0.086l-3.967-9h-2.632l2.182,4.978c-0.85,2.146-3.034,5.236-6.62,5.236
	c-2.123,0-3.366-0.98-3.659-2.71c0.364,0.062,0.884,0.274,2.611,0.274c2.343,0,5.039-1.088,5.039-4.174
	c0-2.352-1.786-3.645-4.165-3.645c-3.623,0-6.11,2.29-6.11,6.308c0,1.398,0.267,2.565,0.762,3.491
	c-0.421,0.298-1.134,0.561-1.827,0.561c-0.814,0-1.484-0.229-1.484-1.467V170.12h-2v3.479c-1-0.298-1.582-0.513-2.595-0.513
	c-4.246,0-6.288,2.767-6.288,6.479c0,3.562,1.788,6.082,5.385,6.082c1.759,0,3.056-0.594,3.796-1.477
	c0.564,1.084,1.639,1.477,3.04,1.477c1.472,0,2.68-0.488,3.55-1.021c1.025,0.683,2.349,1.021,3.921,1.021
	c4.558,0,6.789-3.25,7.779-5.09l2.151,4.562h1.697c2.746-3,4.95-8,5.747-12h-2.496C489.951,177.121,488.501,180.121,486.727,182.121
	z M464.768,182.028c0,0.031,0,0.058,0,0.086c-1,0.79-1.871,1.271-3.305,1.271c-1.979,0-3.006-1.725-3.006-3.817
	c0-2.659,1.13-4.222,3.674-4.222c1.147,0,1.637,0.25,2.637,0.595V182.028z M475.289,175.097c1.298,0,1.923,0.594,1.923,1.666
	c0,1.782-1.353,2.149-3.022,2.149c-1.502,0-1.985-0.229-2.323-0.308C471.922,176.368,473.426,175.097,475.289,175.097z"/>
<path fill="#FFFFFF" d="M419.189,173.428c-1.621-0.091-3.148,0.229-4.621,1.397l0.198,0.67v6.837c-2,0.95-2.461,1.153-3.149,1.153
	c-1.775,0-3.004-0.826-3.326-2.422c-0.084-0.406-0.213-0.943-0.213-0.943h-0.312v-4h0.327h3.673v-2h-4v-0.753v-3.247h-2v4h-3v2h3
	v3.462c0,0.504,0.019,1.251,0.118,1.771c0.539,2.668,2.627,4.769,5.49,4.769h0.021c1.195,0,2.33-0.711,3.188-1.312l0.002,0.312
	h2.182v-8.825c1-0.372,1.473-0.586,2.354-0.586c0.6,0,1.331,0.164,1.648,0.314l1.031-2.099
	C421.161,173.668,420.09,173.476,419.189,173.428z"/>
<path fill="#FFFFFF" d="M451.511,178.536c-1.337-0.307-3.088-0.367-3.088-1.525c0-1.177,1.27-1.559,2.005-1.559
	c1.295,0,2.199,0.349,3.257,0.894l0.934-1.868c-0.985-0.489-2.439-1.068-4.104-1.068c-2.009,0-4.325,1.105-4.325,3.583
	c0,2.435,1.83,2.919,3.884,3.323c1.251,0.246,2.259,0.344,2.341,1.403c0,0,0.244,1.402-2.657,1.402h-3.104
	c-1.812,0-1.881-0.59-1.881-1.688c0-0.586,0.012-3.654,0.012-3.654c0-3.43-2.755-4.299-4.962-4.299
	c-2.032,0-4.053,0.664-5.053,1.347v0.626v7.736c0,0.254-0.545,0.398-0.961,0.398c-0.424,0-1.039-0.286-1.039-0.804v-7.958
	l-0.559-0.28c-0.447-0.239-2.167-1.019-4.622-1.019c-2.156,0-3.889,0.778-4.969,2.246c-1.027,1.395-1.375,3.518-0.971,5.551
	c0.559,2.729,2.803,4.797,5.61,4.797h0.023c1.362,0,2.524-0.664,3.454-1.498c0.674,0.797,1.977,1.145,3.33,1.145
	c2.153,0,3.7-1.391,3.7-1.391v-8.188c0,0,0.95-0.508,2.603-0.508c1.522,0,2.397,0.482,2.397,2.621v3.633
	c0,1.479-0.054,3.186,3.499,3.186h3.771h0.007h0.205c2.71,0,3.778-1.014,4.249-2.057c0.219-0.416,0.269-0.651,0.269-1.143
	c0-0.004,0-0.01,0-0.01c0-0.01,0-0.021,0-0.021C454.768,179.493,453.089,178.899,451.511,178.536z M430.203,182.295
	c-0.432,0.429-1.559,1.175-2.973,1.175c-1.944,0-2.916-1.389-3.181-2.689c-0.308-1.521-0.054-2.652,0.714-3.592
	c0.679-0.834,1.704-1.067,2.969-1.067h0.005c0.996,0,1.979,0.021,2.466,0.183C430.203,177.118,430.201,181.651,430.203,182.295z"/>
<path fill="#FFFFFF" d="M330.232,173.356c-2.186,0-4.466,0.801-5.466,1.304v15.461h3v-4.954c0,0.305,1.384,0.501,2.388,0.501
	c4.211,0,6.209-2.554,6.209-6.208C336.363,175.632,334.201,173.356,330.232,173.356z M330.207,183.421
	c-1.133,0-2.439-0.219-2.439-0.551v-6.689c0-0.298,1.384-0.549,2.744-0.549c2.306,0,3.412,1.469,3.412,3.827
	C333.924,182.088,332.73,183.421,330.207,183.421z"/>
<path fill="#FFFFFF" d="M351.768,174.635v8.27c0,0.383-0.94,0.653-1.514,0.653c-0.803,0-1.486-0.443-1.486-1.773v-7.176
	c-1-0.502-2.582-1.252-5.047-1.252c-3.91,0-6.129,2.551-6.129,6.209c0,3.693,2.242,6.103,5.928,6.103
	c1.39,0,2.589-0.444,3.531-1.301c0.664,0.829,1.646,1.192,3.03,1.192c0.764,0,1.369-0.438,1.856-0.438h1.83v-9.042
	c1-0.254,1.389-0.419,2.196-0.419c0.888,0,1.679,0.224,1.985,0.364l0.793-2.166c-0.997-0.357-1.807-0.502-2.777-0.502
	C354.382,173.356,352.768,173.858,351.768,174.635z M346.768,182.342c-1,0.441-1.612,1.107-3.136,1.107
	c-2.331,0-3.415-1.56-3.415-3.884c0-2.659,1.446-3.985,3.942-3.985c1.022,0,1.607,0.188,2.607,0.386L346.768,182.342
	L346.768,182.342z"/>
<path fill="#FFFFFF" d="M389.599,160.983c-1.211,0.662-1.665,2.185-1.005,3.402c0.664,1.219,2.188,1.665,3.405,1.008
	c1.218-0.662,1.667-2.188,1.005-3.403C392.342,160.767,390.823,160.317,389.599,160.983z"/>
<path fill="#FFFFFF" d="M399.734,166.319c-5.948,0.735-9.309,1.277-21.409,2.594c-0.996,0.113-1.822,0.25-1.913,0.919
	c-0.15,1.087,2.669,1.164,4.638,1.624c0.981,0.229,2.011,0.504,2.912,0.966c0.664,0.341,0.425,0.836,0.274,1.054
	c-2.293,3.346-5.393,8.075-6.267,9.784c-0.855,1.687,0.595,2.535,2.037,1.265c3.396-3.031,4.46-4.393,7.504-6.776
	c0.415-0.327,0.745-0.257,0.856,0.244c0.06,0.276,0.124,0.625,0.184,1.054c0.065,0.477,0.065,1.3,0,1.863
	c-0.005,0.021-0.01,0.044-0.01,0.059c-0.12,0.952-0.447,2.592-1.693,4.229c-0.97,1.274-2.276,2.479-4.294,3.284
	c-1.905,0.72-4.067,0.94-6.359,0.526c-0.407-0.077-0.817-0.165-1.22-0.282c-6.375-1.787-10.481-8.186-9.285-14.832
	c1.271-7.062,8.05-11.781,15.117-10.509c0.641,0.115,1.26-0.313,1.372-0.959c0.12-0.643-0.307-1.26-0.961-1.378
	c-0.913-0.167-1.833-0.246-2.739-0.246c-7.308,0-13.791,5.229-15.131,12.674c-1.438,8.023,3.62,15.709,11.418,17.652
	c0.342,0.082,0.672,0.155,1.008,0.219c2.68,0.479,5.414,0.249,7.906-0.623c2.198-0.767,4.201-2.05,5.819-3.773l0.021-0.003
	c0.328-0.349,0.663-0.746,0.982-1.193c1.306-1.754,2.244-3.869,2.667-6.323c0.104-0.521,0.182-1.061,0.235-1.608
	c0.46-4.921,2.52-6.693,6.754-9.317c0.652-0.402,1.117-1.002,1.011-1.604C401.093,166.487,400.678,166.197,399.734,166.319z"/>
<path fill="#FFFFFF" d="M110.776,0C49.521,0-0.135,49.658-0.135,110.913c0,61.256,49.656,110.913,110.911,110.913
	c61.257,0,110.911-49.657,110.911-110.913C221.687,49.658,172.033,0,110.776,0z M153.768,80.351c0-5.123,4.254-8.988,10-8.988
	c5.742,0,10,3.865,10,8.988v61.123c0,4.871-4.447,8.834-10,8.834c-5.555,0-10-3.963-10-8.834V80.351z M67.768,141.47
	c0,5.125-4.254,8.993-9.997,8.993c-5.748,0-10.003-3.868-10.003-8.993V80.351c0-4.87,4.444-8.834,10.003-8.834
	c5.553,0,9.997,3.964,9.997,8.834V141.47z M57.57,60.33c-6.328,0-11.475-5.142-11.475-11.462c0-6.428,5.04-11.464,11.475-11.464
	c6.324,0,11.467,5.143,11.467,11.464C69.037,55.296,64,60.33,57.57,60.33z M110.308,150.466c-9.438,0-27.293-2.402-27.293-11.475
	c0-5.098,4.886-8.523,9.456-8.523c2.211,0,4.352,0.662,6.83,1.428c3.014,0.929,6.43,1.986,10.701,1.986
	c6.503,0,10.087-2.427,10.087-6.836c0-3.138-1.812-4.55-3.581-5.516c-2.526-1.397-5.818-2.478-9.303-3.618
	c-10.902-3.575-23.26-7.626-23.26-23.441c0-14.664,10.957-23.419,29.312-23.419c22.732,0,24.503,9.614,24.503,12.562
	c0,6.754-6.524,7.283-8.523,7.283c-2.378,0-4.198-0.644-6.309-1.388c-2.475-0.878-5.287-1.872-9.517-1.872
	c-8.374,0-9.624,3.895-9.624,6.212c0,2.552,1.508,4.257,5.031,5.699c2.084,0.896,4.457,1.696,6.971,2.54
	c10.758,3.618,24.142,8.117,24.142,24.495C139.931,141.759,129.133,150.466,110.308,150.466z M163.985,184.423
	c-6.326,0-11.469-5.141-11.469-11.464c0-6.43,5.036-11.464,11.469-11.464c6.322,0,11.472,5.146,11.472,11.464
	C175.457,179.39,170.419,184.423,163.985,184.423z"/>
<path fill="#BFC0BF" d="M280.77,72.61c-5.121,0-9.002,3.6-9.002,8.029v61.642c0,4.661,3.709,8.183,9.002,8.183
	c5.289,0,8.998-3.521,8.998-8.183V80.639C289.768,76.21,285.885,72.61,280.77,72.61z"/>
<path fill="#BFC0BF" d="M280.553,40.888c-5.996,0-10.688,4.696-10.688,10.691c0,5.891,4.796,10.685,10.688,10.685
	c5.991,0,10.688-4.693,10.688-10.685C291.239,45.685,286.443,40.888,280.553,40.888z"/>
<path fill="#BFC0BF" d="M370.768,142.281v-40.835c0-18.425-10.253-28.993-28.082-28.993c-6.514,0-13.563,2.298-19.824,6.473
	l-1.174,0.779l-0.873-1.107c-2.01-2.589-4.464-3.954-7.097-3.954c-5.112,0-8.97,3.248-8.97,7.56c0,1.502,0.183,2.238,2.364,5.202
	l0.228,0.251c0.829,1.198,1.428,2.348,1.428,7.215v47.408c0,4.949,3.275,8.027,9,8.027c5.726,0,9-3.078,9-8.027V95.033
	c0-0.706,0.118-1.458-0.009-2.332l-0.112-1.556l1.097-0.468c5.164-2.332,9.028-3.419,12.507-3.419c7.206,0,11.52,5.436,11.52,14.187
	v40.835c0,4.801,3.947,8.027,9.498,8.027C366.816,150.31,370.768,147.082,370.768,142.281z"/>
<path fill="#BFC0BF" d="M415.836,150.463c6.631,0,13.66-1.067,18.778-2.858c4.453-1.561,9.772-4.455,9.772-9.396
	c0-1.18-0.391-7.088-8.182-7.088c-2.463,0-3.626,0.586-4.01,0.776c-4.953,2.166-9.161,3.605-14.579,3.605
	c-8.917,0-13.851-3.746-13.851-10.275v-6.901l1.545,0.237c4.824,0.664,8.056,0.922,11.746,0.922
	c19.133,0,28.791-7.488,28.791-22.265c0-15.939-10.683-25.079-29.209-25.079c-19.623,0-31.873,10.089-31.873,26.333v26.125
	C384.768,140.07,397.277,150.463,415.836,150.463z M403.768,97.532c0-7.312,4.713-11.681,12.911-11.681
	c7.237,0,10.813,3.458,10.813,10.276c0,10.276-8.486,10.276-11.26,10.276c-1.521,0-6.148-0.157-11.252-0.632l-1.214-0.13
	L403.768,97.532L403.768,97.532z"/>
<path fill="#BFC0BF" d="M486.354,103.393l-0.135-0.047c-2.505-0.843-4.869-1.643-6.962-2.542c-3.823-1.564-5.606-3.648-5.606-6.553
	c0-2.669,1.376-7.145,10.586-7.145c4.412,0,7.319,1.023,9.886,1.93c2.061,0.729,3.827,1.355,6.073,1.355
	c6.964,0,7.713-4.522,7.713-6.466c0-2.766-1.716-11.782-23.827-11.782c-18.228,0-28.68,8.286-28.68,22.73
	c0,15.317,12.139,19.295,22.854,22.808c3.567,1.172,6.914,2.269,9.532,3.717c1.89,1.033,4.066,2.687,4.066,6.332
	c0,4.94-4.031,7.774-11.058,7.774c-4.447,0-7.957-1.088-11.049-2.045c-2.445-0.752-4.54-1.397-6.633-1.397
	c-5.175,0-8.653,3.987-8.653,7.715c0,7.845,15.936,10.688,26.646,10.688c18.424,0,28.991-8.458,28.991-23.203
	C510.102,111.371,497.486,107.132,486.354,103.393z"/>
<path fill="#BFC0BF" d="M255.504,139.072c-2.492-2.666-2.737-3.786-2.737-7.433V50.325c0-5.115-4.169-9.279-9.287-9.279
	c-5.146,0-9.437,4.031-9.49,9.179l-0.223,0.104v83.191c0,7.889,1.747,16.943,13.719,16.943c6.78,0,10.325-2.332,10.325-6.932
	c0-1.922-0.515-2.521-1.66-3.71C255.928,139.587,255.746,139.339,255.504,139.072z"/>
</svg>
